<mxfile host="app.diagrams.net" agent="Mozilla/5.0 (Windows NT 10.0; Win64; x64) AppleWebKit/537.36 (KHTML, like Gecko) Chrome/130.0.0.0 Safari/537.36" version="24.8.0">
  <diagram name="Page-1" id="u5egrAl2jH4VkauSu2c9">
    <mxGraphModel dx="842" dy="500" grid="1" gridSize="10" guides="1" tooltips="1" connect="1" arrows="1" fold="1" page="1" pageScale="1" pageWidth="850" pageHeight="1100" math="0" shadow="0">
      <root>
        <mxCell id="0" />
        <mxCell id="1" parent="0" />
        <mxCell id="R1ebenNzdDME4fY7ii2q-4" value="Check file key existence in Redis" style="rounded=0;whiteSpace=wrap;html=1;" vertex="1" parent="1">
          <mxGeometry x="220" y="300" width="120" height="60" as="geometry" />
        </mxCell>
        <mxCell id="R1ebenNzdDME4fY7ii2q-5" value="/upload-chunk" style="text;html=1;align=left;verticalAlign=middle;whiteSpace=wrap;rounded=0;" vertex="1" parent="1">
          <mxGeometry x="240" y="220" width="100" height="30" as="geometry" />
        </mxCell>
        <mxCell id="R1ebenNzdDME4fY7ii2q-6" value="" style="rounded=0;whiteSpace=wrap;html=1;" vertex="1" parent="1">
          <mxGeometry x="670" y="240" width="120" height="60" as="geometry" />
        </mxCell>
        <mxCell id="R1ebenNzdDME4fY7ii2q-7" value="/merge" style="text;html=1;align=left;verticalAlign=middle;whiteSpace=wrap;rounded=0;" vertex="1" parent="1">
          <mxGeometry x="670" y="210" width="100" height="30" as="geometry" />
        </mxCell>
        <mxCell id="R1ebenNzdDME4fY7ii2q-8" value="Init multipart request&lt;div&gt;&lt;i&gt;&lt;b&gt;InitiateMultipartUpload&lt;/b&gt;&lt;/i&gt;&lt;/div&gt;" style="rounded=0;whiteSpace=wrap;html=1;" vertex="1" parent="1">
          <mxGeometry x="10" y="420" width="150" height="60" as="geometry" />
        </mxCell>
        <mxCell id="R1ebenNzdDME4fY7ii2q-10" style="edgeStyle=orthogonalEdgeStyle;rounded=0;orthogonalLoop=1;jettySize=auto;html=1;exitX=0;exitY=0.5;exitDx=0;exitDy=0;entryX=1;entryY=0.5;entryDx=0;entryDy=0;" edge="1" parent="1" source="R1ebenNzdDME4fY7ii2q-9" target="R1ebenNzdDME4fY7ii2q-8">
          <mxGeometry relative="1" as="geometry" />
        </mxCell>
        <mxCell id="R1ebenNzdDME4fY7ii2q-9" value="Exist?" style="rhombus;whiteSpace=wrap;html=1;" vertex="1" parent="1">
          <mxGeometry x="240" y="410" width="80" height="80" as="geometry" />
        </mxCell>
      </root>
    </mxGraphModel>
  </diagram>
</mxfile>
